<?xml version="1.0" encoding="UTF-8" standalone="no"?>
<svg
   xmlns:dc="http://purl.org/dc/elements/1.1/"
   xmlns:cc="http://creativecommons.org/ns#"
   xmlns:rdf="http://www.w3.org/1999/02/22-rdf-syntax-ns#"
   xmlns:svg="http://www.w3.org/2000/svg"
   xmlns="http://www.w3.org/2000/svg"
   id="svg19033"
   version="1.1"
   viewBox="0 0 400 104.373527526855"
   height="104.373527526855"
   width="400">
  <defs
     id="defs19027" />
  <metadata
     id="metadata19030">
    <rdf:RDF>
      <cc:Work
         rdf:about="">
        <dc:format>image/svg+xml</dc:format>
        <dc:type
           rdf:resource="http://purl.org/dc/dcmitype/StillImage" />
        <dc:title></dc:title>
      </cc:Work>
    </rdf:RDF>
  </metadata>
  <g
     transform="translate(-376.988638095239,-421.52371558367)"
     id="layer1">
    <g
       style="fill:#ffff"
       transform="matrix(2.88957901340043,0,0,-2.88957901340043,462.859080281913,463.22520880311)"
       id="g16771">
      <path
         id="path16773"
         style="fill:#ffff;fill-opacity:1;fill-rule:nonzero;stroke:none"
         d="M 0,0 0.002,5.447 -20.753,5.45 V 0 Z M 7.577,-0.024 C 7.577,-4.207 4.187,-7.599 0.002,-7.599 L -20.753,-7.592 l -0.004,-8.914 c 0,-2.093 -1.695,-3.788 -3.789,-3.788 -2.089,0 -3.787,1.695 -3.787,3.788 V 9.242 c 0,2.093 1.698,3.788 3.787,3.788 L 0.002,13.023 C 4.187,13.023 7.577,9.629 7.577,5.447 Z" />
    </g>
    <g
       style="fill:#ffff"
       transform="matrix(2.88957901340043,0,0,-2.88957901340043,504.969782117903,521.897243796503)"
       id="g16775">
      <path
         id="path16777"
         style="fill:#ffff;fill-opacity:1;fill-rule:nonzero;stroke:none"
         d="m 0,0 c 2.095,0 3.789,1.696 3.789,3.787 v 25.756 c 0,2.09 -1.694,3.787 -3.789,3.787 -2.091,0 -3.787,-1.697 -3.787,-3.787 V 3.787 C -3.787,1.696 -2.091,0 0,0" />
    </g>
    <g
       style="fill:#ffff"
       transform="matrix(2.88957901340043,0,0,-2.88957901340043,547.003910110035,510.920022082496)"
       id="g16779">
      <path
         id="path16781"
         style="fill:#ffff;fill-opacity:1;fill-rule:nonzero;stroke:none"
         d="m 0,0 c 0,-2.093 -1.697,-3.788 -3.79,-3.788 -2.091,0 -3.786,1.695 -3.786,3.788 l 0.005,24.323 c 0,2.874 2.332,5.208 5.205,5.208 1.335,0 2.668,-0.51 3.684,-1.526 l 21.4,-21.088 0.008,18.831 c 0,2.093 1.692,3.788 3.783,3.788 2.093,0 3.788,-1.695 3.788,-3.788 L 30.301,1.412 c 0,-2.872 -2.331,-5.207 -5.207,-5.207 -1.33,0 -2.663,0.51 -3.683,1.526 L 0,19.156 Z" />
    </g>
    <g
       style="fill:#ffff"
       transform="matrix(2.88957901340043,0,0,-2.88957901340043,665.668517705941,521.891464638475)"
       id="g16783">
      <path
         id="path16785"
         style="fill:#ffff;fill-opacity:1;fill-rule:nonzero;stroke:none"
         d="M 0,0 C -4.184,0 -7.574,3.392 -7.574,7.575 V 25.75 c 0,4.182 3.39,7.576 7.574,7.576 l 24.137,0.007 c 2.092,0 3.786,-1.695 3.786,-3.788 0,-2.092 -1.694,-3.789 -3.786,-3.789 L -0.004,25.753 -0.002,7.575 22.418,7.578 v 5.306 H 8.934 c -2.092,0 -3.788,1.695 -3.788,3.786 0,2.094 1.696,3.786 3.788,3.786 l 13.475,-0.021 c 4.182,0 7.575,-3.391 7.575,-7.573 V 7.575 C 29.984,3.392 26.591,0 22.409,0 Z" />
    </g>
    <g
       style="fill:#ffff"
       transform="matrix(2.88957901340043,0,0,-2.88957901340043,759.774593266959,435.697923289853)"
       id="g16787">
      <path
         id="path16789"
         style="fill:#ffff;fill-opacity:1;fill-rule:nonzero;stroke:none"
         d="m 0,0 h 0.72 c 0.604,0 1.158,0.027 1.158,0.724 0,0.586 -0.503,0.677 -0.967,0.677 H 0 Z M -0.686,1.954 H 1.02 c 1.051,0 1.545,-0.413 1.545,-1.261 0,-0.798 -0.503,-1.13 -1.16,-1.2 L 2.668,-2.454 H 1.929 l -1.2,1.896 H 0 v -1.896 h -0.686 z m 1.478,-5.427 c 1.742,0 3.099,1.394 3.099,3.238 0,1.807 -1.357,3.199 -3.099,3.199 -1.768,0 -3.123,-1.392 -3.123,-3.199 0,-1.844 1.354999999999999,-3.238 3.123,-3.238 m 0,6.994 C 2.849,3.521 4.573,1.895 4.573,-0.235 4.573,-2.405 2.849,-4.028 0.792,-4.028 c -2.071,0 -3.811,1.623 -3.811,3.793000000000001 C -3.019,1.895 -1.279,3.521 0.792,3.521" />
    </g>
  </g>
</svg>
